<svg width="25" height="24" viewBox="0 0 25 24" fill="none" xmlns="http://www.w3.org/2000/svg">
<path d="M10.83 16.593H4.5293" stroke="#D2D1D6" stroke-width="1.5" stroke-linecap="round" stroke-linejoin="round"/>
<path d="M13.6406 6.90164H19.9413" stroke="#D2D1D6" stroke-width="1.5" stroke-linecap="round" stroke-linejoin="round"/>
<path fill-rule="evenodd" clip-rule="evenodd" d="M9.22629 6.84625C9.22629 5.5506 8.16813 4.5 6.86314 4.5C5.55816 4.5 4.5 5.5506 4.5 6.84625C4.5 8.14191 5.55816 9.19251 6.86314 9.19251C8.16813 9.19251 9.22629 8.14191 9.22629 6.84625Z" stroke="#D2D1D6" stroke-width="1.5" stroke-linecap="round" stroke-linejoin="round"/>
<path fill-rule="evenodd" clip-rule="evenodd" d="M20.4997 16.5533C20.4997 15.2576 19.4424 14.207 18.1374 14.207C16.8316 14.207 15.7734 15.2576 15.7734 16.5533C15.7734 17.8489 16.8316 18.8995 18.1374 18.8995C19.4424 18.8995 20.4997 17.8489 20.4997 16.5533Z" stroke="#D2D1D6" stroke-width="1.5" stroke-linecap="round" stroke-linejoin="round"/>
</svg>
