<svg xmlns="http://www.w3.org/2000/svg" version="1.1" xmlns:xlink="http://www.w3.org/1999/xlink" xmlns:svgjs="http://svgjs.dev/svgjs" width="1500" height="863" viewBox="0 0 1500 863"><g transform="matrix(1,0,0,1,-0.9072044089604105,-0.2100333871944713)"><svg viewBox="0 0 396 228" data-background-color="#ffffff" preserveAspectRatio="xMidYMid meet" height="863" width="1500" xmlns="http://www.w3.org/2000/svg" xmlns:xlink="http://www.w3.org/1999/xlink"><g id="tight-bounds" transform="matrix(1,0,0,1,0.23986893788560337,0.055489701367719135)"><svg viewBox="0 0 395.52 227.88902059726456" height="227.88902059726456" width="395.52"><g><svg viewBox="0 0 395.52 227.88902059726456" height="227.88902059726456" width="395.52"><g transform="matrix(1,0,0,1,0,149.33222087477313)"><svg viewBox="0 0 395.52 78.55679972249143" height="78.55679972249143" width="395.52"><g id="textblocktransform"><svg viewBox="0 0 395.52 78.55679972249143" height="78.55679972249143" width="395.52" id="textblock"><g><svg viewBox="0 0 395.52 78.55679972249143" height="78.55679972249143" width="395.52"><g transform="matrix(1,0,0,1,0,0)"><svg width="395.52" viewBox="-2.704790000000004 -32.70303085011811 226.33542999999997 44.95394199388218" height="78.55679972249143" data-palette-color="#2dc9af"><path d="M25.327-26.01l1.301 7.894-2.921 0.481-1.464-4.522c-0.211-0.54-0.533-0.774-0.968-0.702v0l-7.074 1.166 4.508 27.351c0.04 0.243 0.164 0.463 0.372 0.658 0.208 0.195 0.492 0.28 0.853 0.255v0l3.19-0.323 0.35 2.121-13.4 2.209-0.349-2.122 3.135-0.719c0.35-0.091 0.588-0.263 0.716-0.513 0.134-0.252 0.181-0.499 0.141-0.743v0l-4.509-27.351-7.124 1.174c-0.48 0.079-0.717 0.405-0.71 0.979v0l0.094 4.748-2.872 0.473-1.301-7.893zM61.73-30.054l0.235 2.137-2.751 0.504c-0.356 0.053-0.604 0.207-0.744 0.464-0.147 0.251-0.207 0.499-0.179 0.744v0l3.303 29.989-3.886 0.428-21.612-25.859 2.696 24.472c0.027 0.245 0.139 0.471 0.336 0.677 0.19 0.207 0.466 0.307 0.828 0.301v0l2.875-0.115 0.235 2.137-10.775 1.187-0.235-2.137 2.821-0.512c0.354-0.073 0.612-0.232 0.772-0.477 0.161-0.246 0.228-0.491 0.201-0.737v0l-2.926-26.559c-0.027-0.245-0.146-0.474-0.357-0.685-0.212-0.218-0.497-0.314-0.857-0.288v0l-2.964 0.125-0.235-2.137 9.87-1.087 0.137 1.242 19.349 23.221-2.519-22.861c-0.027-0.245-0.143-0.474-0.347-0.687-0.205-0.219-0.477-0.316-0.817-0.292v0l-2.864 0.115-0.236-2.138zM93.563-31.816l0.434 7.988-2.956 0.161-0.963-4.655c-0.151-0.559-0.445-0.827-0.885-0.803v0l-7.16 0.389 1.503 27.679c0.013 0.246 0.113 0.478 0.298 0.695 0.185 0.217 0.459 0.332 0.82 0.346v0l3.206 0.026 0.117 2.147-13.56 0.736-0.117-2.147 3.195-0.374c0.358-0.053 0.614-0.197 0.767-0.432 0.161-0.236 0.234-0.477 0.222-0.723v0l-1.503-27.679-7.21 0.391c-0.486 0.026-0.757 0.325-0.812 0.896v0l-0.424 4.73-2.906 0.157-0.434-7.988zM129.094-14.551l0.005 2.18-2.54 0.245c-0.36 0.021-0.626 0.138-0.799 0.352-0.173 0.214-0.259 0.451-0.259 0.71v0l0.024 11.57c0 0-0.5 0.168-1.499 0.504-1.006 0.335-2.305 0.675-3.898 1.018-1.599 0.337-3.306 0.507-5.118 0.51v0c-2.787 0.006-5.268-0.472-7.443-1.434-2.169-0.955-4.001-2.258-5.499-3.909-1.497-1.657-2.634-3.545-3.411-5.663-0.778-2.118-1.169-4.334-1.174-6.647v0c-0.007-3.507 0.716-6.582 2.171-9.225 1.455-2.636 3.537-4.687 6.247-6.153 2.717-1.466 5.942-2.202 9.675-2.21v0c1.713-0.004 3.297 0.15 4.751 0.46 1.447 0.304 2.865 0.641 4.252 1.011v0l0.841 0.219 0.017 8.1-3.01 0.006-0.82-4.499c-0.047-0.293-0.171-0.54-0.371-0.739-0.194-0.206-0.404-0.359-0.631-0.458v0c-0.067-0.013-0.167-0.053-0.301-0.12v0c-0.507-0.226-1.188-0.478-2.041-0.756-0.861-0.272-1.821-0.406-2.881-0.404v0c-2.393 0.005-4.512 0.566-6.356 1.684-1.838 1.124-3.274 2.763-4.31 4.919-1.029 2.155-1.54 4.79-1.534 7.903v0c0.01 4.813 1.181 8.534 3.513 11.163 2.325 2.628 5.448 3.939 9.369 3.93v0c1.107-0.002 2.086-0.131 2.939-0.386 0.859-0.255 1.346-0.383 1.459-0.383v0l-0.021-10c-0.001-0.26-0.088-0.496-0.261-0.71-0.167-0.213-0.431-0.329-0.791-0.348v0l-3.35-0.233-0.005-2.18zM157.724-5.187l-0.424 8.359-25.957-1.317 0.109-2.148 2.607-0.068c0.361-0.015 0.641-0.131 0.839-0.348 0.198-0.217 0.303-0.449 0.315-0.694v0l1.355-26.686c0.013-0.246-0.069-0.491-0.243-0.733-0.174-0.249-0.441-0.39-0.8-0.421v0l-2.587-0.332 0.109-2.147 24.319 1.234-0.378 7.45-3.006-0.152-0.551-4.143c-0.001-0.247-0.086-0.472-0.256-0.674-0.17-0.202-0.368-0.309-0.594-0.321v0l-10.857-0.551-0.632 12.464 7.51 0.381c0.226 0.011 0.438-0.078 0.635-0.268 0.196-0.184 0.299-0.365 0.308-0.545v0l0.694-3.419 2.537 0.129-0.567 11.165-2.537-0.128-0.343-3.492c0.009-0.18-0.077-0.381-0.26-0.604-0.189-0.223-0.387-0.34-0.593-0.351v0l-7.51-0.381-0.7 13.782 12.664 0.643c0.213 0.011 0.419-0.096 0.617-0.319 0.199-0.23 0.309-0.425 0.33-0.584v0l1.161-4.918zM191.815 4.652l-0.225 2.139-11.844-1.248 0.225-2.138 2.89 0.053c0.133 0.014 0.264-0.056 0.394-0.21 0.131-0.161 0.204-0.314 0.22-0.459v0c0.007-0.066 0.005-0.107-0.008-0.122v0l-2.469-9.49-11.517-1.213-4.247 8.633c-0.023 0.031-0.039 0.08-0.046 0.146v0c-0.02 0.192 0.046 0.39 0.199 0.594 0.146 0.203 0.296 0.313 0.448 0.328v0l2.918 0.559-0.225 2.138-10.035-1.056 0.225-2.139 2.969-0.31 14.921-30.264 3.75 0.395 8.317 31.976c0.097 0.352 0.186 0.593 0.266 0.722 0.088 0.123 0.314 0.237 0.678 0.343v0zM170.608-10.331l9.736 1.025-3.517-13.583zM223.631 9.808l-0.356 2.222c-0.213-0.021-0.642 0.026-1.288 0.138-0.646 0.113-1.338 0.11-2.075-0.008v0c-1.692-0.271-2.989-0.769-3.893-1.493-0.897-0.724-1.541-1.59-1.933-2.598-0.391-1.015-0.656-2.103-0.794-3.267-0.138-1.163-0.28-2.32-0.427-3.471-0.146-1.158-0.424-2.245-0.835-3.263-0.419-1.012-1.09-1.882-2.013-2.611-0.923-0.728-2.254-1.232-3.992-1.509v0c-0.52-0.083-1.01-0.145-1.469-0.185-0.466-0.041-0.725-0.065-0.778-0.074v0l-1.806 11.287c-0.039 0.244 0.009 0.491 0.145 0.742 0.135 0.251 0.378 0.422 0.728 0.512v0l2.575 0.614-0.339 2.123-12.304-1.968 0.34-2.123 2.599 0.213c0.361 0.024 0.651-0.061 0.871-0.256 0.22-0.194 0.35-0.413 0.389-0.656v0l4.221-26.385c0.039-0.244-0.015-0.495-0.163-0.755-0.146-0.266-0.396-0.435-0.749-0.505v0l-2.536-0.608 0.339-2.123 12.906 2.065c3.752 0.6 6.608 1.722 8.566 3.365 1.958 1.643 2.676 4.101 2.152 7.373v0c-0.275 1.718-0.886 3.069-1.833 4.051-0.947 0.983-2.09 1.688-3.427 2.115-1.332 0.435-2.725 0.698-4.177 0.79v0c1.474 0.621 2.587 1.342 3.34 2.165 0.753 0.823 1.267 1.702 1.543 2.637 0.282 0.936 0.454 1.889 0.515 2.857 0.055 0.967 0.117 1.909 0.186 2.825 0.068 0.922 0.26 1.773 0.574 2.553 0.315 0.773 0.874 1.439 1.675 2 0.802 0.56 1.976 0.964 3.523 1.211zM216.296-14.04v0c0.338-2.113-0.073-3.85-1.232-5.21-1.167-1.355-3.314-2.282-6.441-2.783v0l-2.272-0.363-2.167 13.548c0.086 0.014 0.42 0.077 1.002 0.191 0.584 0.107 1.07 0.191 1.459 0.253v0c2.752 0.44 4.943 0.271 6.572-0.508 1.63-0.779 2.656-2.488 3.079-5.128z" opacity="1" transform="matrix(1,0,0,1,0,0)" fill="#2dc9af" class="wordmark-text-0" data-fill-palette-color="primary" id="text-0"></path></svg></g></svg></g></svg></g></svg></g><g transform="matrix(1,0,0,1,125.83138916790143,0)"><svg viewBox="0 0 143.8572216641971 127.10490195099113" height="127.10490195099113" width="143.8572216641971"><g><svg xmlns="http://www.w3.org/2000/svg" xmlns:xlink="http://www.w3.org/1999/xlink" version="1.1" x="0" y="0" viewBox="1.4 7.800000000000006 108.2 95.6" style="enable-background:new 0 0 110 110;" xml:space="preserve" height="127.10490195099113" width="143.8572216641971" class="icon-icon-0" data-fill-palette-color="accent" id="icon-0"><path d="M89.9 53.2v-3c0-1.2-1-2.2-2.2-2.2h-7.3c-1.2 0-2.2 1-2.2 2.2v2.4H60.4c-0.6-2.2-2.6-3.8-5-3.8l0 0c-0.7-0.6-1.5-1.3-2.2-2.1-3.1-3.5-4.1-7-3-10.5 1.7-5.1 7.2-6.1 13-7.2 5.5-1 11.1-2.1 14.2-6.6 2.3-3.4 2.7-8.2 1.3-14.6l-3.1 0.6c1.2 5.6 0.9 9.6-0.9 12.2-2.3 3.5-7.1 4.4-12.2 5.3-6.2 1.1-13.1 2.4-15.4 9.3C45 41.6 48.5 46.8 51.9 50c-0.8 0.7-1.4 1.5-1.7 2.5H32.7v-2.4c0-1.2-1-2.2-2.2-2.2h-7.3c-1.2 0-2.2 1-2.2 2.2v3C9.7 55.8 1.4 65.9 1.4 77.9c0 14.1 11.4 25.5 25.5 25.5 6.1 0 11.7-2.2 16.1-5.8 3.4-2.8 7.8-4.5 12.5-4.5s9 1.7 12.4 4.4l0 0c4.4 3.6 10 5.8 16.2 5.8 14.1 0 25.5-11.4 25.5-25.5C109.5 65.9 101.1 55.8 89.9 53.2zM23.2 67.9c0-0.8 0.6-1.4 1.4-1.4h4.6c0.8 0 1.4 0.6 1.4 1.4v3.9c0 0.3-0.1 0.5-0.2 0.7-0.1 0.1-0.1 0.2-0.2 0.3l-2.3 2.3c-0.5 0.5-1.4 0.5-2 0l-2.3-2.3c-0.2-0.2-0.4-0.5-0.4-0.8v-0.1l0 0 0 0V67.9zM20.9 81.6h-0.1l0 0 0 0h-3.9c-0.8 0-1.4-0.6-1.4-1.4v-4.6c0-0.8 0.6-1.4 1.4-1.4h3.9c0.3 0 0.5 0.1 0.7 0.2 0.1 0.1 0.2 0.1 0.3 0.2l2.3 2.3c0.5 0.5 0.5 1.4 0 2l-2.3 2.3C21.5 81.4 21.2 81.5 20.9 81.6zM30.5 87.9c0 0.8-0.6 1.4-1.4 1.4h-4.6c-0.8 0-1.4-0.6-1.4-1.4V84c0-0.3 0.1-0.5 0.2-0.7 0.1-0.1 0.1-0.2 0.2-0.3l2.3-2.3c0.5-0.5 1.4-0.5 2 0l2.3 2.3c0.2 0.2 0.4 0.5 0.4 0.8v0.1l0 0 0 0V87.9zM38.2 80.2c0 0.8-0.6 1.4-1.4 1.4H33c-0.3 0-0.5-0.1-0.7-0.2-0.1-0.1-0.2-0.1-0.3-0.2l-2.3-2.3c-0.5-0.5-0.5-1.4 0-2l2.3-2.3c0.2-0.2 0.5-0.4 0.8-0.4h0.1l0 0 0 0h3.9c0.8 0 1.4 0.6 1.4 1.4V80.2zM52.1 80.3c-0.2 0.4-0.8 0.6-1.2 0.3L49.8 80c-0.4-0.2-0.6-0.8-0.3-1.2l5.4-9.2c0.2-0.4 0.8-0.6 1.2-0.3l1.1 0.6c0.4 0.2 0.6 0.8 0.3 1.2L52.1 80.3zM64.9 71.2l-5.4 9.2c-0.2 0.4-0.8 0.6-1.2 0.3L57.2 80c-0.4-0.2-0.6-0.8-0.3-1.2l5.4-9.2c0.2-0.4 0.8-0.6 1.2-0.3l1.1 0.6C65 70.2 65.1 70.7 64.9 71.2zM75.7 80.9c-1.6 0-3-1.3-3-3 0-1.6 1.3-3 3-3 1.6 0 3 1.3 3 3S77.4 80.9 75.7 80.9zM84.2 89.3c-1.6 0-3-1.3-3-3 0-1.6 1.3-3 3-3 1.6 0 3 1.3 3 3C87.1 88 85.8 89.3 84.2 89.3zM84.2 72.5c-1.6 0-3-1.3-3-3s1.3-3 3-3c1.6 0 3 1.3 3 3S85.8 72.5 84.2 72.5zM92.6 80.9c-1.6 0-3-1.3-3-3 0-1.6 1.3-3 3-3 1.6 0 3 1.3 3 3S94.2 80.9 92.6 80.9z" fill="#2dc9af" data-fill-palette-color="accent"></path></svg></g></svg></g><g></g></svg></g><defs></defs></svg><rect width="395.52" height="227.88902059726456" fill="none" stroke="none" visibility="hidden"></rect></g></svg></g></svg>