<svg xmlns="http://www.w3.org/2000/svg" version="1.1" xmlns:xlink="http://www.w3.org/1999/xlink" xmlns:svgjs="http://svgjs.dev/svgjs" width="2000" height="2250" viewBox="0 0 2000 2250"><g transform="matrix(1,0,0,1,3.410605131648481e-13,0)"><svg viewBox="0 0 320 360" data-background-color="#003366" preserveAspectRatio="xMidYMid meet" height="2250" width="2000" xmlns="http://www.w3.org/2000/svg" xmlns:xlink="http://www.w3.org/1999/xlink"><g id="tight-bounds" transform="matrix(1,0,0,1,0,0)"><svg viewBox="0 0 320 360" height="360" width="320"><g><svg></svg></g><g><svg viewBox="0 0 320 360" height="360" width="320"><g><path d="M20.961 227.22l3.726 4.658-1.863-6.056c-0.466-2.795-3.726 0.466-1.863 1.398M25.153 224.425c1.397 2.329 2.795 4.658 2.795 6.987 0 3.261 2.795 4.658 5.123 5.589-3.261-3.726-5.124-13.974-7.918-12.576M204.017 26.929c7.918 0 15.371-0.932 23.756 0.931 20.495 5.124 37.729 15.371 49.374 29.811l32.606 52.169c1.397 13.042 4.192 27.482 3.726 43.319 3.261 0 2.795-4.658 6.521-5.59-3.726 9.316-5.59 20.961-6.521 34.469-2.329-7.453 0-18.632 0.466-24.687-3.261 5.124-5.124 1.397-5.124-0.932 0.466-3.726-1.397-3.261-2.795-4.658-5.124-4.658-8.384-9.782-12.11-17.7 2.329-6.055 2.795-14.905-4.658-19.563-2.329-1.397-5.124-3.726-6.521-7.453-1.863-5.124-5.124-11.179-4.193-19.097 0.466-2.329-6.987 5.124-11.179 1.863-18.166-12.576-36.332-27.016-58.224-39.127-11.645 0-20.029-4.192-24.221-9.316-3.726-4.658-0.932-10.713 4.658-11.179 3.261 0 6.987-0.932 9.782 0.932 0.466-1.863 2.329-4.192 4.657-4.192M157.904 16.215l0.932 0.466c4.658 0.932 6.987 7.453 12.11 5.124 0 3.261 0.466 6.521-0.466 8.85-1.397 3.726-5.59 3.726-8.85 3.726-31.208-1.863-49.374 11.179-68.471 22.358-5.124 3.261-10.713 5.59-14.906 9.782-20.029 18.632-41.921 35.866-47.045 70.335l-4.192 38.195c-0.466 4.192-5.124 8.384-4.192 13.508l3.26 22.824c-3.261-3.261-5.124 0.932-4.192 2.795 0.466 1.397 2.329 6.055 5.124 1.863 3.726 6.987 7.453 20.495 12.576 26.55 15.837 18.632 36.332 35.4 53.101 52.169 4.192-0.932 7.453-0.932 8.384-3.727 1.397 2.795-1.397 5.59-3.726 6.056 7.453 4.658 15.837 8.85 27.016 9.781 14.44 0.932 27.948 3.261 40.524 6.522 6.521-1.863 13.042-2.795 20.029-3.261 2.329 0 3.726-3.726 6.521-4.658l0.466-4.658c2.795 4.192 2.329-1.397 0.466-4.192 3.261 2.795 4.192 5.124 5.589 6.987 0-1.397 3.726-6.521 3.727-0.466l0.931-6.055c1.397-0.932 1.863 5.124 3.261 0.931 1.397-4.192 4.192-0.932 6.987-2.329-0.932 1.863-0.466 5.59 2.794 3.261l3.727-3.261c2.329 5.59 6.055 3.261 7.918 2.329 20.495-13.042 40.99-28.413 60.553-43.784l-0.466 6.055 2.329-7.453c2.329 2.329 4.192 0.466 5.124-0.931 2.795-4.658 6.521-9.316 12.577-13.508-7.453 20.029-16.303 35.866-27.482 48.908l-4.658 5.59c0 3.261-0.932 7.453-4.658 7.918-1.863 0.466-5.59-0.932-8.384 1.863-1.397 1.863 3.261 5.59-0.466 2.795-3.261-2.329-6.521 0-10.248 0.932-2.795 0.932 1.863 3.726 2.795 5.589 0.932 1.863 1.863 3.726 1.398 6.056l-5.124-5.59c-6.055 3.261-9.782 9.316-14.906 13.974-2.329 1.863-1.397 5.124-1.397 7.918-3.261 0-6.987-0.932-8.85 0.932-1.397 1.863-0.932 4.658-0.932 7.453-4.658-0.466-5.124-7.453-9.315-6.056-4.192 0.932-8.85 1.397-12.577 3.727 2.795 5.59-4.658 2.329-3.726 3.26-6.987-4.192-13.042-7.453-20.495-4.658-15.837-5.124-35.4-2.795-49.84-0.931 0-2.329 0.466-4.658-0.466-5.124-0.932 2.329-3.726 1.397-3.26 1.397-8.85-6.055-17.7-9.782-27.016-14.905-8.384 0.932-16.303-3.261-18.632-5.59-6.521-6.055-13.974-2.795-20.029-4.192-13.042-3.261-17.7-16.769-19.098-26.084-0.932-4.658-4.658-6.521-6.055-6.056-6.055-19.563-15.371-37.263-22.824-55.429-1.863-4.658-1.397-9.316-1.397-14.44 2.329 0.932 4.658 0.466 4.192-2.794-2.329-15.371-7.918-27.016-13.974-38.195 3.261-15.837 3.726-34.469 11.179-48.443 6.521-12.576 18.632-19.098 27.016-29.811 2.795-3.726 2.795-8.85 5.59-12.11 9.316-9.316 18.632-19.098 28.879-27.482 4.658-3.726 10.247 0 17.234-1.397 2.329-8.384 11.645-15.837 20.495-13.508 3.726 0.932 11.179-8.85 13.508-9.782 3.726-1.397 1.863 3.726 1.863 6.987 8.85-6.987 20.961-10.713 32.14-14.906" fill="#000000" fill-rule="nonzero" stroke="none" stroke-width="1" stroke-linecap="butt" stroke-linejoin="miter" stroke-miterlimit="10" stroke-dasharray="" stroke-dashoffset="0" font-family="none" font-weight="none" font-size="none" text-anchor="none" style="mix-blend-mode: normal" data-fill-palette-color="tertiary"></path></g><g transform="matrix(1,0,0,1,64.00000000000001,163.13940724478596)"><svg viewBox="0 0 191.99999999999997 33.7211855104281" height="33.7211855104281" width="191.99999999999997"><g><svg viewBox="0 0 191.99999999999997 33.7211855104281" height="33.7211855104281" width="191.99999999999997"><g><svg viewBox="0 0 191.99999999999997 33.7211855104281" height="33.7211855104281" width="191.99999999999997"><g id="textblocktransform"><svg viewBox="0 0 191.99999999999997 33.7211855104281" height="33.7211855104281" width="191.99999999999997" id="textblock"><g><svg viewBox="0 0 191.99999999999997 33.7211855104281" height="33.7211855104281" width="191.99999999999997"><g transform="matrix(1,0,0,1,0,0)"><svg width="191.99999999999997" viewBox="1.67 -32.29 189.77 33.33" height="33.7211855104281" data-palette-color="#ffffff"><path d="M10-27.71L1.67-27.71 1.67-31.25 22.29-31.25 22.29-27.71 13.96-27.71 13.96 0 10 0 10-27.71ZM53.96-31.25L53.96 1.04 32.08-22.4 32.08 0 28.33 0 28.33-32.29 50.21-8.85 50.21-31.25 53.96-31.25ZM68.33-27.71L59.99-27.71 59.99-31.25 80.62-31.25 80.62-27.71 72.29-27.71 72.29 0 68.33 0 68.33-27.71ZM100.65 0.63L100.65 0.63Q97.25 0.63 94.3-0.64 91.35-1.91 89.11-4.15 86.87-6.39 85.62-9.32 84.37-12.26 84.37-15.63L84.37-15.63Q84.37-18.99 85.63-21.93 86.9-24.86 89.14-27.1 91.38-29.34 94.33-30.61 97.28-31.88 100.69-31.88L100.69-31.88Q104.02-31.88 106.94-30.64 109.85-29.41 112.08-27.26L112.08-27.26 110.93-22.47Q109.33-25.03 106.64-26.58 103.95-28.13 100.69-28.13L100.69-28.13Q97.25-28.13 94.49-26.44 91.73-24.76 90.1-21.93 88.46-19.1 88.46-15.63L88.46-15.63Q88.46-12.22 90.08-9.38 91.69-6.53 94.45-4.83 97.21-3.13 100.65-3.13L100.65-3.13Q102.6-3.13 104.35-3.59 106.1-4.06 107.56-4.93L107.56-4.93 107.56-13.13 98.95-13.13 98.95-16.67 111.38-16.67 111.38-2.92Q109.26-1.15 106.47-0.26 103.67 0.63 100.65 0.63ZM134.71 0L119.3 0 119.3-31.25 134.71-31.25 134.71-27.71 123.25-27.71 123.25-21.04 132.28-21.04 132.28-17.5 123.25-17.5 123.25-3.54 134.71-3.54 134.71 0ZM141.41 0L137.42 0 150.65-32.29 150.72-32.29 163.95 0 159.74 0 156.06-9.27 145.13-9.27 141.41 0ZM148.91-18.75L146.45-12.57 154.74-12.57 152.28-18.75Q151.83-19.93 151.41-21.08 150.99-22.22 150.58-23.82L150.58-23.82Q150.16-22.22 149.78-21.09 149.4-19.97 148.91-18.75L148.91-18.75ZM173.01 0L169.05 0 169.05-31.25 176.89-31.25Q179.85-31.25 181.96-30.07 184.08-28.89 185.25-26.96 186.41-25.03 186.41-22.74L186.41-22.74Q186.41-20.17 184.95-18.13 183.49-16.08 180.96-15.1L180.96-15.1 191.44 0 186.83 0 176.89-14.38 173.01-14.38 173.01 0ZM173.01-27.71L173.01-17.71 176.89-17.71Q178.91-17.71 180.18-18.45 181.44-19.2 182.05-20.36 182.66-21.53 182.66-22.74L182.66-22.74Q182.66-24.93 181.08-26.32 179.5-27.71 176.89-27.71L176.89-27.71 173.01-27.71Z" opacity="1" transform="matrix(1,0,0,1,0,0)" fill="#000000" class="wordmark-text-0" data-fill-palette-color="primary" id="text-0"></path></svg></g></svg></g></svg></g></svg></g></svg></g></svg></g></svg></g><defs></defs></svg><rect width="320" height="360" fill="none" stroke="none" visibility="hidden"></rect></g></svg></g></svg>